<svg width="148" height="148" viewBox="0 0 148 148" fill="none" xmlns="http://www.w3.org/2000/svg">
<circle cx="74" cy="74" r="71.5" stroke="url(#paint0_linear_91_2)" stroke-width="5"/>
<mask id="mask0_91_2" style="mask-type:alpha" maskUnits="userSpaceOnUse" x="8" y="8" width="131" height="131">
<circle cx="73.8623" cy="73.6548" r="65" fill="#D9D9D9"/>
</mask>
<g mask="url(#mask0_91_2)">
<path d="M77.844 81.7077V82.1077H84.084V82.9077H83.764V84.1077H67.204V84.5077H70.084V85.7077H78.884V86.5077H74.324V88.1077H74.084V88.5077H68.804V89.7077H76.644V90.1077H76.964V91.3077H77.764V92.9077H62.324V94.1077H78.644V94.9077H73.204V96.1077H72.484V96.9077H74.324V97.7077H73.124V98.5077H75.924L75.684 99.3077H79.444C79.3373 99.4677 79.204 99.6277 79.044 99.7877C78.9373 99.8944 78.804 100.001 78.644 100.108H80.484C80.2173 100.321 79.844 100.428 79.364 100.428H63.684C63.204 100.428 62.8307 100.321 62.564 100.108H60.724C60.3507 99.9477 60.084 99.681 59.924 99.3077H56.164L55.924 98.5077H53.124V97.7077H54.324V96.9077H52.484V96.1077H53.204V94.9077H58.644V94.1077H44.164V94.9077H37.524V96.1077H42.084V96.9077H40.964V97.7077H45.124V98.5077H40.644L40.404 99.3077H42.164C41.9507 99.681 41.7107 99.9477 41.444 100.108H39.524C39.2573 100.321 38.884 100.428 38.404 100.428H22.724C22.1907 100.428 21.7907 100.321 21.524 100.108H23.444C23.1773 99.9477 22.9373 99.681 22.724 99.3077H20.884C20.724 99.041 20.644 98.7744 20.644 98.5077H25.124V97.7077H20.964V96.9077H22.084V96.1077H17.524V94.9077H24.164V94.1077H28.004V92.9077H15.684V91.3077H20.244V90.1077H23.444V89.7077H21.204V88.5077H17.444V88.1077H18.244V86.5077H20.804V85.7077H22.004V84.5077H16.244V84.1077H31.044V82.9077H12.964V82.1077H30.004V81.7077H21.684V80.5077H26.484V80.1077H27.444V79.7077H27.044V78.1077H19.124V76.9077H21.764V76.5077H21.044V75.3077H21.364V74.9077H21.444V74.1077H21.524V73.7077H20.484V73.3077H17.364V72.1077H18.404V70.9077H16.804V69.7077H20.804V68.1077H19.924V67.3077H14.084V66.9077H23.444V66.1077H25.684V65.7077H4.08398V65.3077H16.804V64.9077H21.364V63.7077H13.204V62.1077H10.964V60.9077H20.564V59.3077H21.364V58.1077H26.484V57.7077H22.084V56.1077H25.684V55.3077H21.364V54.9077H19.844V54.1077H17.524V53.3077H14.724V51.7077H19.764V50.5077H22.804V49.3077H21.364V48.5077H19.364V48.1077H20.484V47.3077H20.244V46.5877C20.244 46.2144 20.324 45.921 20.484 45.7077H25.604C25.6573 45.5477 25.7373 45.4143 25.844 45.3077C25.9507 45.1477 26.0573 45.0144 26.164 44.9077H38.484C38.804 44.5877 39.2573 44.4277 39.844 44.4277H70.564C71.0973 44.4277 71.5507 44.5877 71.924 44.9077H84.244C84.3507 45.0144 84.4573 45.1477 84.564 45.3077C84.724 45.4143 84.8307 45.5477 84.884 45.7077H74.564C74.6707 46.0277 74.724 46.321 74.724 46.5877V47.3077H75.124V48.1077H76.244V48.5077H74.084V49.3077H73.124V50.5077H76.244V51.7077H68.724V53.3077H77.364V54.1077H71.124V54.9077H73.684V55.3077H72.404V56.1077H78.404V57.7077H69.604V58.1077H76.404V59.3077H75.204V60.9077H68.804V62.1077H66.164V63.7077H74.324V64.9077H69.764V65.3077H57.044V65.7077H78.644V66.1077H76.404V66.9077H67.044V67.3077H72.884V68.1077H73.764V69.7077H69.764V70.9077H71.364V72.1077H70.324V73.3077H73.444V73.7077H74.484V74.1077H74.404V74.9077H74.324V75.3077H74.004V76.5077H74.724V76.9077H72.084V78.1077H80.004V79.7077H80.404V80.1077H79.444V80.5077H74.644V81.7077H77.844ZM30.964 60.9077V62.1077H33.204V63.3877H46.164V62.1077H48.804V60.9077H55.204V59.3077H56.404V58.1077H49.604V57.7077H58.404V56.1077H52.404V55.3077H53.684V54.9077H51.124V54.1077H57.364V53.3077H48.724V51.7077H56.244V50.5077H53.124V49.3077H54.084V48.5077H56.244V48.1077H55.124V47.3077H54.724V46.5877C54.724 46.321 54.7773 46.0277 54.884 45.7077H65.204C65.3107 45.5477 65.4173 45.4143 65.524 45.3077C65.6307 45.1477 65.7373 45.0144 65.844 44.9077H44.564C44.8307 45.121 45.044 45.3877 45.204 45.7077H40.084C40.1907 45.8677 40.244 46.161 40.244 46.5877V47.3077H40.484V48.1077H39.364V48.5077H41.364V49.3077H42.804V50.5077H39.764V51.7077H34.724V53.3077H37.524V54.1077H39.844V54.9077H41.364V55.3077H45.684V56.1077H42.084V57.7077H46.484V58.1077H41.364V59.3077H40.564V60.9077H30.964ZM64.084 82.9077V82.1077H57.844V81.7077H54.644V80.9877H41.684V81.7077H50.004V82.1077H32.964V82.9077H51.044V84.1077H63.764V82.9077H64.084ZM58.884 85.7077H50.084V84.5077H47.204V84.1077H36.244V84.5077H42.004V85.7077H40.804V86.5077H38.244V88.1077H37.444V88.5077H41.204V89.7077H43.444V90.1077H40.244V91.3077H35.684V92.9077H57.764V91.3077H56.964V90.1077H56.644V89.7077H48.804V88.5077H54.084V88.1077H54.324V86.5077H58.884V85.7077Z" fill="url(#paint1_linear_91_2)"/>
<path d="M132.521 92.5077H129.241L128.521 93.3077H140.761C140.708 93.361 140.654 93.4144 140.601 93.4677C140.548 93.521 140.468 93.601 140.361 93.7077H121.481C121.214 93.9744 120.921 94.241 120.601 94.5077C120.334 94.7744 120.041 95.041 119.721 95.3077H125.561L124.521 96.1077H135.401L134.761 96.5077H130.041C129.988 96.561 129.881 96.6144 129.721 96.6677C129.614 96.721 129.508 96.801 129.401 96.9077H124.041L121.801 98.1077H124.921C124.228 98.4277 123.534 98.721 122.841 98.9877C122.148 99.201 121.428 99.441 120.681 99.7077H117.801C115.988 100.241 114.014 100.641 111.881 100.908H112.281C111.428 101.014 110.548 101.094 109.641 101.148C108.734 101.201 107.828 101.228 106.921 101.228C105.908 101.228 104.894 101.201 103.881 101.148C102.921 101.094 101.988 101.014 101.081 100.908H100.761C98.4675 100.641 96.4142 100.241 94.6009 99.7077H97.4809C96.6809 99.441 95.9342 99.201 95.2409 98.9877C94.5475 98.721 93.8542 98.4277 93.1609 98.1077H90.0409C89.6675 97.8944 89.2942 97.7077 88.9209 97.5477C88.5475 97.3344 88.1742 97.121 87.8009 96.9077H93.2409L92.6009 96.5077H97.3209C97.2675 96.401 97.1875 96.321 97.0809 96.2677C96.9742 96.2144 96.8675 96.161 96.7609 96.1077H85.8809C85.6675 96.001 85.4809 95.8677 85.3209 95.7077C85.1609 95.5477 85.0009 95.4144 84.8409 95.3077H78.9209C78.6542 95.041 78.3875 94.7744 78.1209 94.5077C77.8009 94.241 77.5075 93.9744 77.2409 93.7077H96.1209C96.0675 93.601 96.0142 93.521 95.9609 93.4677C95.9075 93.4144 95.8542 93.361 95.8009 93.3077H83.5609C83.3475 93.0944 83.1342 92.8277 82.9209 92.5077H86.2009C86.1475 92.401 86.0942 92.321 86.0409 92.2677C85.9875 92.2144 85.9342 92.161 85.8809 92.1077H95.8809L95.1609 90.9077H90.2009L89.9609 90.5077H78.6809C78.6275 90.2943 78.5475 90.1077 78.4409 89.9477C78.3342 89.7344 78.2275 89.521 78.1209 89.3077H83.4809L83.0009 88.1077H81.0809L80.9209 87.7077H81.8009C81.7475 87.4944 81.6942 87.3077 81.6409 87.1477C81.5875 86.9344 81.5342 86.721 81.4809 86.5077H80.8409C80.8409 86.2943 80.8142 86.1077 80.7609 85.9477C80.7609 85.7344 80.7342 85.521 80.6809 85.3077H80.0409C80.0409 85.0943 80.0142 84.9077 79.9609 84.7477C79.9609 84.5877 79.9609 84.401 79.9609 84.1877V84.1077H79.8809C79.8809 84.001 79.8809 83.921 79.8809 83.8677C79.9342 83.8144 79.9609 83.761 79.9609 83.7077H81.8009C82.0675 82.8543 82.6275 82.4277 83.4809 82.4277H98.6809C99.5342 82.4277 100.174 82.5343 100.601 82.7477C101.028 82.961 101.508 83.281 102.041 83.7077H100.201L100.281 83.7877C100.388 83.841 100.468 83.8944 100.521 83.9477C100.628 84.001 100.708 84.0543 100.761 84.1077H100.841C101.534 84.641 102.388 85.041 103.401 85.3077H104.121C104.814 85.521 105.748 85.6277 106.921 85.6277C107.614 85.6277 108.254 85.601 108.841 85.5477C109.428 85.4943 109.934 85.4143 110.361 85.3077H110.121C111.348 85.041 112.121 84.641 112.441 84.1077H112.281C112.388 83.8943 112.441 83.761 112.441 83.7077H113.241L113.321 83.3877C113.321 82.9077 113.134 82.481 112.761 82.1077H112.121C111.641 81.6277 110.788 81.2277 109.561 80.9077H109.321C108.841 80.7477 108.281 80.6143 107.641 80.5077C107.001 80.3477 106.254 80.2143 105.401 80.1077H104.921L101.641 79.6277C101.268 79.5743 100.894 79.521 100.521 79.4677C100.201 79.4143 99.8542 79.361 99.4809 79.3077C97.2942 78.9343 95.1875 78.401 93.1609 77.7077H91.7209C90.9742 77.441 90.2809 77.1744 89.6409 76.9077H88.5209C88.2542 76.801 87.9875 76.6944 87.7209 76.5877C87.4542 76.4277 87.1875 76.2677 86.9209 76.1077H79.9609C79.5875 75.8943 79.2409 75.7077 78.9209 75.5477C78.6009 75.3343 78.2809 75.121 77.9609 74.9077H92.8409C92.5742 74.6943 92.3075 74.5077 92.0409 74.3477C91.8275 74.1343 91.5875 73.921 91.3209 73.7077H75.4009C75.2409 73.601 75.1075 73.4677 75.0009 73.3077C74.8409 73.1477 74.7075 73.0143 74.6009 72.9077H78.7609C78.2809 72.3743 77.8275 71.841 77.4009 71.3077H78.6009L78.1209 70.5077H70.4409C70.3875 70.401 70.3342 70.321 70.2809 70.2677C70.2275 70.2143 70.2009 70.161 70.2009 70.1077H88.4409C88.3342 69.8944 88.2275 69.7077 88.1209 69.5477C88.0142 69.3343 87.9075 69.121 87.8009 68.9077H73.8009L73.3209 67.7077H84.6009L84.4409 67.3077H81.0809L80.9209 66.9077H82.5209C82.5209 66.801 82.4942 66.721 82.4409 66.6677C82.4409 66.6143 82.4409 66.561 82.4409 66.5077H82.1209L81.8809 65.7077H81.4009L81.3209 64.9077H81.1609V64.5077H78.6009C78.5475 64.401 78.5209 64.2677 78.5209 64.1077C78.5209 63.9477 78.5209 63.8143 78.5209 63.7077H76.2009L76.1209 62.9077H85.2409C85.1875 62.801 85.1609 62.6677 85.1609 62.5077C85.1609 62.3477 85.1609 62.2143 85.1609 62.1077H86.4409V62.0277C86.4409 61.761 86.4409 61.4943 86.4409 61.2277C86.4409 60.961 86.4675 60.721 86.5209 60.5077H83.0809C83.1342 60.2944 83.1609 60.1077 83.1609 59.9477C83.1609 59.7343 83.1875 59.521 83.2409 59.3077H88.8409C88.8409 59.201 88.8409 59.121 88.8409 59.0677C88.8942 59.0143 88.9209 58.961 88.9209 58.9077H83.2409C83.3475 58.5877 83.4009 58.321 83.4009 58.1077H82.5209L82.7609 57.3077H81.4009C81.5609 56.721 81.7475 56.1877 81.9609 55.7077H82.6009L82.9209 54.9077H83.8009L84.5209 53.7077H83.7209C83.8809 53.4943 84.0142 53.3077 84.1209 53.1477C84.2809 52.9343 84.4142 52.721 84.5209 52.5077H83.8809L84.8409 51.3077H86.5209C86.5742 51.201 86.6275 51.121 86.6809 51.0677C86.7342 51.0143 86.7875 50.961 86.8409 50.9077H84.6009C84.8142 50.6944 85.0275 50.5077 85.2409 50.3477C85.4542 50.1343 85.6675 49.921 85.8809 49.7077H87.1609C87.4809 49.441 87.8009 49.1743 88.1209 48.9077C88.4409 48.5877 88.7875 48.321 89.1609 48.1077H90.6009C90.9209 47.8943 91.2409 47.7077 91.5609 47.5477C91.8809 47.3343 92.2275 47.121 92.6009 46.9077H92.3609C92.4675 46.801 92.6009 46.721 92.7609 46.6677C92.9209 46.6143 93.0542 46.561 93.1609 46.5077H92.0409C92.1475 46.401 92.2809 46.321 92.4409 46.2677C92.6009 46.2143 92.7609 46.161 92.9209 46.1077H92.1209C92.8675 45.7877 93.6409 45.4943 94.4409 45.2277C95.2942 44.961 96.1475 44.721 97.0009 44.5077H98.2009C99.4275 44.241 100.708 44.0277 102.041 43.8677C103.428 43.7077 104.868 43.6277 106.361 43.6277C109.188 43.6277 111.854 43.921 114.361 44.5077H113.241C114.948 44.881 116.601 45.4143 118.201 46.1077H118.921C119.081 46.161 119.241 46.2143 119.401 46.2677C119.561 46.321 119.721 46.401 119.881 46.5077H121.001C121.108 46.561 121.241 46.6143 121.401 46.6677C121.561 46.721 121.694 46.801 121.801 46.9077H122.041C122.414 47.121 122.761 47.3343 123.081 47.5477C123.454 47.7077 123.801 47.8943 124.121 48.1077H122.761C123.188 48.321 123.561 48.5877 123.881 48.9077C124.254 49.1743 124.601 49.441 124.921 49.7077H123.721L125.001 50.9077H127.241L127.641 51.3077H125.961C126.174 51.521 126.361 51.7344 126.521 51.9477C126.734 52.1077 126.921 52.2943 127.081 52.5077H127.721L128.681 53.7077H129.401L130.121 54.9077H129.241C129.401 55.1743 129.534 55.441 129.641 55.7077H129.001C129.161 55.9743 129.294 56.241 129.401 56.5077C129.508 56.7743 129.614 57.041 129.721 57.3077H131.081C131.188 57.6277 131.241 57.8943 131.241 58.1077H132.201C132.254 58.2143 132.281 58.3477 132.281 58.5077C132.281 58.6677 132.308 58.801 132.361 58.9077H138.041V59.3077H132.921C132.974 59.521 133.001 59.8143 133.001 60.1877V60.5077H130.041C129.828 61.4677 129.294 61.9477 128.441 61.9477H112.441C111.694 61.9477 111.081 61.841 110.601 61.6277C110.174 61.4143 109.721 61.0944 109.241 60.6677L109.001 60.5077H111.961C111.694 60.2944 111.321 60.081 110.841 59.8677C110.361 59.601 109.748 59.4143 109.001 59.3077H106.121C105.001 59.4677 104.228 59.8677 103.801 60.5077H107.241C107.081 60.8277 107.001 61.1477 107.001 61.4677C107.001 61.7343 107.028 61.9477 107.081 62.1077H105.881C105.934 62.3743 106.148 62.641 106.521 62.9077H97.4809C97.8009 63.1743 98.3609 63.441 99.1609 63.7077H101.481C101.908 63.8677 102.414 64.0277 103.001 64.1877C103.641 64.2943 104.308 64.401 105.001 64.5077H107.561C107.988 64.561 108.441 64.6143 108.921 64.6677C109.401 64.721 109.908 64.801 110.441 64.9077H110.521C111.428 65.0143 112.308 65.1477 113.161 65.3077C114.014 65.4143 114.814 65.5477 115.561 65.7077H116.041C116.681 65.8143 117.268 65.9477 117.801 66.1077C118.388 66.2143 118.948 66.3477 119.481 66.5077H119.801C120.068 66.561 120.308 66.6143 120.521 66.6677C120.734 66.721 120.948 66.801 121.161 66.9077H119.641C119.854 66.961 120.041 67.0143 120.201 67.0677C120.414 67.121 120.628 67.201 120.841 67.3077H124.201C124.361 67.361 124.521 67.4143 124.681 67.4677C124.894 67.521 125.081 67.601 125.241 67.7077H113.961C115.028 68.1343 115.881 68.5343 116.521 68.9077H130.521C130.841 69.121 131.161 69.3343 131.481 69.5477C131.801 69.7077 132.094 69.8944 132.361 70.1077H114.121C114.228 70.161 114.334 70.2143 114.441 70.2677C114.548 70.321 114.628 70.401 114.681 70.5077H122.361C122.521 70.6143 122.681 70.7477 122.841 70.9077C123.001 71.0677 123.134 71.201 123.241 71.3077H122.041C122.574 71.7877 123.028 72.321 123.401 72.9077H119.241C119.348 73.0143 119.454 73.1477 119.561 73.3077C119.668 73.4677 119.748 73.601 119.801 73.7077H135.641L136.361 74.9077H121.481C121.588 75.121 121.694 75.3343 121.801 75.5477C121.908 75.7077 121.988 75.8943 122.041 76.1077H128.921L129.161 76.9077H130.281L130.521 77.7077H131.961C132.068 77.921 132.121 78.1877 132.121 78.5077C132.174 78.7743 132.228 79.041 132.281 79.3077L132.361 80.1077H132.841C132.894 80.2143 132.921 80.3477 132.921 80.5077C132.921 80.6677 132.921 80.801 132.921 80.9077H133.161V82.1077H133.881V82.3477C133.881 82.561 133.854 82.7743 133.801 82.9877C133.801 83.201 133.801 83.441 133.801 83.7077H133.001V84.1077H133.161C133.161 84.321 133.134 84.5343 133.081 84.7477C133.081 84.9077 133.054 85.0943 133.001 85.3077H133.241L133.001 86.5077H133.641C133.588 86.721 133.534 86.9344 133.481 87.1477C133.428 87.3077 133.348 87.4944 133.241 87.7077H132.361C132.361 87.761 132.334 87.8144 132.281 87.8677C132.281 87.921 132.281 88.001 132.281 88.1077H134.201L133.721 89.3077H128.361C128.308 89.521 128.201 89.7344 128.041 89.9477C127.934 90.1077 127.828 90.2943 127.721 90.5077H139.001L138.761 90.9077H143.641C143.534 91.121 143.401 91.3344 143.241 91.5477C143.134 91.7077 143.001 91.8944 142.841 92.1077H132.841C132.788 92.161 132.734 92.2144 132.681 92.2677C132.628 92.321 132.574 92.401 132.521 92.5077ZM111.721 59.3077H114.121C113.961 59.2543 113.774 59.2277 113.561 59.2277C113.401 59.2277 113.214 59.2277 113.001 59.2277C112.788 59.2277 112.574 59.2277 112.361 59.2277C112.148 59.2277 111.934 59.2543 111.721 59.3077Z" fill="url(#paint2_linear_91_2)"/>
</g>
<defs>
<linearGradient id="paint0_linear_91_2" x1="137" y1="111" x2="9.50001" y2="38" gradientUnits="userSpaceOnUse">
<stop stop-color="#14F5AE"/>
<stop offset="1" stop-color="#A58CFE"/>
</linearGradient>
<linearGradient id="paint1_linear_91_2" x1="12.5784" y1="30.983" x2="131.31" y2="116.327" gradientUnits="userSpaceOnUse">
<stop stop-color="#A58CFE"/>
<stop offset="1" stop-color="#14F5AE"/>
</linearGradient>
<linearGradient id="paint2_linear_91_2" x1="12.5784" y1="30.983" x2="131.31" y2="116.327" gradientUnits="userSpaceOnUse">
<stop stop-color="#A58CFE"/>
<stop offset="1" stop-color="#14F5AE"/>
</linearGradient>
</defs>
</svg>
