<svg width="131" height="131" viewBox="0 0 131 131" fill="none" xmlns="http://www.w3.org/2000/svg">
<mask id="mask0_1021_29" style="mask-type:alpha" maskUnits="userSpaceOnUse" x="0" y="0" width="131" height="131">
<circle cx="65.8623" cy="65.6548" r="65" fill="#D9D9D9"/>
</mask>
<g mask="url(#mask0_1021_29)">
<path d="M69.844 73.7075V74.1075H76.084V74.9075H75.764V76.1075H59.204V76.5075H62.084V77.7076H70.884V78.5075H66.324V80.1076H66.084V80.5075H60.804V81.7076H68.644V82.1076H68.964V83.3076H69.764V84.9076H54.324V86.1076H70.644V86.9076H65.204V88.1076H64.484V88.9076H66.324V89.7076H65.124V90.5076H67.924L67.684 91.3076H71.444C71.3373 91.4676 71.204 91.6276 71.044 91.7876C70.9373 91.8942 70.804 92.0009 70.644 92.1076H72.484C72.2173 92.3209 71.844 92.4276 71.364 92.4276H55.684C55.204 92.4276 54.8307 92.3209 54.564 92.1076H52.724C52.3507 91.9476 52.084 91.6809 51.924 91.3076H48.164L47.924 90.5076H45.124V89.7076H46.324V88.9076H44.484V88.1076H45.204V86.9076H50.644V86.1076H36.164V86.9076H29.524V88.1076H34.084V88.9076H32.964V89.7076H37.124V90.5076H32.644L32.404 91.3076H34.164C33.9507 91.6809 33.7107 91.9476 33.444 92.1076H31.524C31.2573 92.3209 30.884 92.4276 30.404 92.4276H14.724C14.1907 92.4276 13.7907 92.3209 13.524 92.1076H15.444C15.1773 91.9476 14.9373 91.6809 14.724 91.3076H12.884C12.724 91.0409 12.644 90.7742 12.644 90.5076H17.124V89.7076H12.964V88.9076H14.084V88.1076H9.52399V86.9076H16.164V86.1076H20.004V84.9076H7.68399V83.3076H12.244V82.1076H15.444V81.7076H13.204V80.5075H9.44398V80.1076H10.244V78.5075H12.804V77.7076H14.004V76.5075H8.24399V76.1075H23.044V74.9075H4.96399V74.1075H22.004V73.7075H13.684V72.5075H18.484V72.1075H19.444V71.7075H19.044V70.1075H11.124V68.9075H13.764V68.5075H13.044V67.3075H13.364V66.9075H13.444V66.1075H13.524V65.7075H12.484V65.3075H9.36399V64.1075H10.404V62.9075H8.80399V61.7075H12.804V60.1075H11.924V59.3075H6.08399V58.9075H15.444V58.1075H17.684V57.7075H-3.91602V57.3075H8.80399V56.9075H13.364V55.7075H5.20399V54.1075H2.96399V52.9075H12.564V51.3075H13.364V50.1075H18.484V49.7075H14.084V48.1075H17.684V47.3075H13.364V46.9075H11.844V46.1075H9.52399V45.3075H6.72399V43.7075H11.764V42.5075H14.804V41.3075H13.364V40.5075H11.364V40.1075H12.484V39.3075H12.244V38.5875C12.244 38.2142 12.324 37.9209 12.484 37.7076H17.604C17.6573 37.5475 17.7373 37.4142 17.844 37.3075C17.9507 37.1475 18.0573 37.0142 18.164 36.9076H30.484C30.804 36.5875 31.2573 36.4275 31.844 36.4275H62.564C63.0973 36.4275 63.5507 36.5875 63.924 36.9076H76.244C76.3507 37.0142 76.4573 37.1475 76.564 37.3075C76.724 37.4142 76.8307 37.5475 76.884 37.7076H66.564C66.6707 38.0275 66.724 38.3209 66.724 38.5875V39.3075H67.124V40.1075H68.244V40.5075H66.084V41.3075H65.124V42.5075H68.244V43.7075H60.724V45.3075H69.364V46.1075H63.124V46.9075H65.684V47.3075H64.404V48.1075H70.404V49.7075H61.604V50.1075H68.404V51.3075H67.204V52.9075H60.804V54.1075H58.164V55.7075H66.324V56.9075H61.764V57.3075H49.044V57.7075H70.644V58.1075H68.404V58.9075H59.044V59.3075H64.884V60.1075H65.764V61.7075H61.764V62.9075H63.364V64.1075H62.324V65.3075H65.444V65.7075H66.484V66.1075H66.404V66.9075H66.324V67.3075H66.004V68.5075H66.724V68.9075H64.084V70.1075H72.004V71.7075H72.404V72.1075H71.444V72.5075H66.644V73.7075H69.844ZM22.964 52.9075V54.1075H25.204V55.3875H38.164V54.1075H40.804V52.9075H47.204V51.3075H48.404V50.1075H41.604V49.7075H50.404V48.1075H44.404V47.3075H45.684V46.9075H43.124V46.1075H49.364V45.3075H40.724V43.7075H48.244V42.5075H45.124V41.3075H46.084V40.5075H48.244V40.1075H47.124V39.3075H46.724V38.5875C46.724 38.3209 46.7773 38.0275 46.884 37.7076H57.204C57.3107 37.5475 57.4173 37.4142 57.524 37.3075C57.6307 37.1475 57.7373 37.0142 57.844 36.9076H36.564C36.8307 37.1209 37.044 37.3875 37.204 37.7076H32.084C32.1907 37.8675 32.244 38.1609 32.244 38.5875V39.3075H32.484V40.1075H31.364V40.5075H33.364V41.3075H34.804V42.5075H31.764V43.7075H26.724V45.3075H29.524V46.1075H31.844V46.9075H33.364V47.3075H37.684V48.1075H34.084V49.7075H38.484V50.1075H33.364V51.3075H32.564V52.9075H22.964ZM56.084 74.9075V74.1075H49.844V73.7075H46.644V72.9875H33.684V73.7075H42.004V74.1075H24.964V74.9075H43.044V76.1075H55.764V74.9075H56.084ZM50.884 77.7076H42.084V76.5075H39.204V76.1075H28.244V76.5075H34.004V77.7076H32.804V78.5075H30.244V80.1076H29.444V80.5075H33.204V81.7076H35.444V82.1076H32.244V83.3076H27.684V84.9076H49.764V83.3076H48.964V82.1076H48.644V81.7076H40.804V80.5075H46.084V80.1076H46.324V78.5075H50.884V77.7076Z" fill="url(#paint0_linear_1021_29)"/>
<path d="M124.521 84.5076H121.241L120.521 85.3076H132.761C132.708 85.3609 132.654 85.4142 132.601 85.4676C132.548 85.5209 132.468 85.6009 132.361 85.7076H113.481C113.214 85.9742 112.921 86.2409 112.601 86.5076C112.334 86.7742 112.041 87.0409 111.721 87.3076H117.561L116.521 88.1076H127.401L126.761 88.5076H122.041C121.988 88.5609 121.881 88.6142 121.721 88.6676C121.614 88.7209 121.508 88.8009 121.401 88.9076H116.041L113.801 90.1076H116.921C116.228 90.4276 115.534 90.7209 114.841 90.9876C114.148 91.2009 113.428 91.4409 112.681 91.7076H109.801C107.988 92.2409 106.014 92.6409 103.881 92.9076H104.281C103.428 93.0142 102.548 93.0942 101.641 93.1476C100.734 93.2009 99.8275 93.2276 98.9209 93.2276C97.9075 93.2276 96.8942 93.2009 95.8809 93.1476C94.9209 93.0942 93.9875 93.0142 93.0809 92.9076H92.7609C90.4675 92.6409 88.4142 92.2409 86.6009 91.7076H89.4809C88.6809 91.4409 87.9342 91.2009 87.2409 90.9876C86.5475 90.7209 85.8542 90.4276 85.1609 90.1076H82.0409C81.6675 89.8942 81.2942 89.7076 80.9209 89.5476C80.5475 89.3342 80.1742 89.1209 79.8009 88.9076H85.2409L84.6009 88.5076H89.3209C89.2675 88.4009 89.1875 88.3209 89.0809 88.2676C88.9742 88.2142 88.8675 88.1609 88.7609 88.1076H77.8809C77.6675 88.0009 77.4809 87.8676 77.3209 87.7076C77.1609 87.5476 77.0009 87.4142 76.8409 87.3076H70.9209C70.6542 87.0409 70.3875 86.7742 70.1209 86.5076C69.8009 86.2409 69.5075 85.9742 69.2409 85.7076H88.1209C88.0675 85.6009 88.0142 85.5209 87.9609 85.4676C87.9075 85.4142 87.8542 85.3609 87.8009 85.3076H75.5609C75.3475 85.0942 75.1342 84.8276 74.9209 84.5076H78.2009C78.1475 84.4009 78.0942 84.3209 78.0409 84.2676C77.9875 84.2142 77.9342 84.1609 77.8809 84.1076H87.8809L87.1609 82.9076H82.2009L81.9609 82.5075H70.6809C70.6275 82.2942 70.5475 82.1076 70.4409 81.9476C70.3342 81.7342 70.2275 81.5209 70.1209 81.3076H75.4809L75.0009 80.1076H73.0809L72.9209 79.7076H73.8009C73.7475 79.4942 73.6942 79.3076 73.6409 79.1476C73.5875 78.9342 73.5342 78.7209 73.4809 78.5075H72.8409C72.8409 78.2942 72.8142 78.1076 72.7609 77.9476C72.7609 77.7342 72.7342 77.5209 72.6809 77.3075H72.0409C72.0409 77.0942 72.0142 76.9075 71.9609 76.7475C71.9609 76.5875 71.9609 76.4009 71.9609 76.1875V76.1075H71.8809C71.8809 76.0009 71.8809 75.9209 71.8809 75.8675C71.9342 75.8142 71.9609 75.7609 71.9609 75.7075H73.8009C74.0675 74.8542 74.6275 74.4275 75.4809 74.4275H90.6809C91.5342 74.4275 92.1742 74.5342 92.6009 74.7475C93.0275 74.9609 93.5075 75.2809 94.0409 75.7075H92.2009L92.2809 75.7875C92.3875 75.8409 92.4675 75.8942 92.5209 75.9475C92.6275 76.0009 92.7075 76.0542 92.7609 76.1075H92.8409C93.5342 76.6409 94.3875 77.0409 95.4009 77.3075H96.1209C96.8142 77.5209 97.7475 77.6276 98.9209 77.6276C99.6142 77.6276 100.254 77.6009 100.841 77.5475C101.428 77.4942 101.934 77.4142 102.361 77.3075H102.121C103.348 77.0409 104.121 76.6409 104.441 76.1075H104.281C104.388 75.8942 104.441 75.7609 104.441 75.7075H105.241L105.321 75.3875C105.321 74.9075 105.134 74.4809 104.761 74.1075H104.121C103.641 73.6275 102.788 73.2275 101.561 72.9075H101.321C100.841 72.7475 100.281 72.6142 99.6409 72.5075C99.0009 72.3475 98.2542 72.2142 97.4009 72.1075H96.9209L93.6409 71.6275C93.2675 71.5742 92.8942 71.5209 92.5209 71.4675C92.2009 71.4142 91.8542 71.3609 91.4809 71.3075C89.2942 70.9342 87.1875 70.4009 85.1609 69.7075H83.7209C82.9742 69.4409 82.2809 69.1742 81.6409 68.9075H80.5209C80.2542 68.8009 79.9875 68.6942 79.7209 68.5875C79.4542 68.4275 79.1875 68.2675 78.9209 68.1075H71.9609C71.5875 67.8942 71.2409 67.7075 70.9209 67.5475C70.6009 67.3342 70.2809 67.1209 69.9609 66.9075H84.8409C84.5742 66.6942 84.3075 66.5075 84.0409 66.3475C83.8275 66.1342 83.5875 65.9209 83.3209 65.7075H67.4009C67.2409 65.6009 67.1075 65.4675 67.0009 65.3075C66.8409 65.1475 66.7075 65.0142 66.6009 64.9075H70.7609C70.2809 64.3742 69.8275 63.8409 69.4009 63.3075H70.6009L70.1209 62.5075H62.4409C62.3875 62.4009 62.3342 62.3209 62.2809 62.2675C62.2275 62.2142 62.2009 62.1609 62.2009 62.1075H80.4409C80.3342 61.8942 80.2275 61.7075 80.1209 61.5475C80.0142 61.3342 79.9075 61.1209 79.8009 60.9075H65.8009L65.3209 59.7075H76.6009L76.4409 59.3075H73.0809L72.9209 58.9075H74.5209C74.5209 58.8009 74.4942 58.7209 74.4409 58.6675C74.4409 58.6142 74.4409 58.5609 74.4409 58.5075H74.1209L73.8809 57.7075H73.4009L73.3209 56.9075H73.1609V56.5075H70.6009C70.5475 56.4009 70.5209 56.2675 70.5209 56.1075C70.5209 55.9475 70.5209 55.8142 70.5209 55.7075H68.2009L68.1209 54.9075H77.2409C77.1875 54.8009 77.1609 54.6675 77.1609 54.5075C77.1609 54.3475 77.1609 54.2142 77.1609 54.1075H78.4409V54.0275C78.4409 53.7609 78.4409 53.4942 78.4409 53.2275C78.4409 52.9609 78.4675 52.7209 78.5209 52.5075H75.0809C75.1342 52.2942 75.1609 52.1075 75.1609 51.9475C75.1609 51.7342 75.1875 51.5209 75.2409 51.3075H80.8409C80.8409 51.2009 80.8409 51.1209 80.8409 51.0675C80.8942 51.0142 80.9209 50.9609 80.9209 50.9075H75.2409C75.3475 50.5875 75.4009 50.3209 75.4009 50.1075H74.5209L74.7609 49.3075H73.4009C73.5609 48.7209 73.7475 48.1875 73.9609 47.7075H74.6009L74.9209 46.9075H75.8009L76.5209 45.7075H75.7209C75.8809 45.4942 76.0142 45.3075 76.1209 45.1475C76.2809 44.9342 76.4142 44.7209 76.5209 44.5075H75.8809L76.8409 43.3075H78.5209C78.5742 43.2009 78.6275 43.1209 78.6809 43.0675C78.7342 43.0142 78.7875 42.9609 78.8409 42.9075H76.6009C76.8142 42.6942 77.0275 42.5075 77.2409 42.3475C77.4542 42.1342 77.6675 41.9209 77.8809 41.7075H79.1609C79.4809 41.4409 79.8009 41.1742 80.1209 40.9075C80.4409 40.5875 80.7875 40.3209 81.1609 40.1075H82.6009C82.9209 39.8942 83.2409 39.7075 83.5609 39.5475C83.8809 39.3342 84.2275 39.1209 84.6009 38.9075H84.3609C84.4675 38.8009 84.6009 38.7209 84.7609 38.6675C84.9209 38.6142 85.0542 38.5609 85.1609 38.5075H84.0409C84.1475 38.4009 84.2809 38.3209 84.4409 38.2675C84.6009 38.2142 84.7609 38.1609 84.9209 38.1075H84.1209C84.8675 37.7875 85.6409 37.4942 86.4409 37.2275C87.2942 36.9609 88.1475 36.7209 89.0009 36.5075H90.2009C91.4275 36.2409 92.7075 36.0275 94.0409 35.8676C95.4275 35.7076 96.8675 35.6276 98.3609 35.6276C101.188 35.6276 103.854 35.9209 106.361 36.5075H105.241C106.948 36.8809 108.601 37.4142 110.201 38.1075H110.921C111.081 38.1609 111.241 38.2142 111.401 38.2675C111.561 38.3209 111.721 38.4009 111.881 38.5075H113.001C113.108 38.5609 113.241 38.6142 113.401 38.6675C113.561 38.7209 113.694 38.8009 113.801 38.9075H114.041C114.414 39.1209 114.761 39.3342 115.081 39.5475C115.454 39.7075 115.801 39.8942 116.121 40.1075H114.761C115.188 40.3209 115.561 40.5875 115.881 40.9075C116.254 41.1742 116.601 41.4409 116.921 41.7075H115.721L117.001 42.9075H119.241L119.641 43.3075H117.961C118.174 43.5209 118.361 43.7342 118.521 43.9475C118.734 44.1075 118.921 44.2942 119.081 44.5075H119.721L120.681 45.7075H121.401L122.121 46.9075H121.241C121.401 47.1742 121.534 47.4409 121.641 47.7075H121.001C121.161 47.9742 121.294 48.2409 121.401 48.5075C121.508 48.7742 121.614 49.0409 121.721 49.3075H123.081C123.188 49.6275 123.241 49.8942 123.241 50.1075H124.201C124.254 50.2142 124.281 50.3475 124.281 50.5075C124.281 50.6675 124.308 50.8009 124.361 50.9075H130.041V51.3075H124.921C124.974 51.5209 125.001 51.8142 125.001 52.1875V52.5075H122.041C121.828 53.4675 121.294 53.9475 120.441 53.9475H104.441C103.694 53.9475 103.081 53.8409 102.601 53.6275C102.174 53.4142 101.721 53.0942 101.241 52.6675L101.001 52.5075H103.961C103.694 52.2942 103.321 52.0809 102.841 51.8675C102.361 51.6009 101.748 51.4142 101.001 51.3075H98.1209C97.0009 51.4675 96.2275 51.8675 95.8009 52.5075H99.2409C99.0809 52.8275 99.0009 53.1475 99.0009 53.4675C99.0009 53.7342 99.0275 53.9475 99.0809 54.1075H97.8809C97.9342 54.3742 98.1475 54.6409 98.5209 54.9075H89.4809C89.8009 55.1742 90.3609 55.4409 91.1609 55.7075H93.4809C93.9075 55.8675 94.4142 56.0275 95.0009 56.1875C95.6409 56.2942 96.3075 56.4009 97.0009 56.5075H99.5609C99.9875 56.5609 100.441 56.6142 100.921 56.6675C101.401 56.7209 101.908 56.8009 102.441 56.9075H102.521C103.428 57.0142 104.308 57.1475 105.161 57.3075C106.014 57.4142 106.814 57.5475 107.561 57.7075H108.041C108.681 57.8142 109.268 57.9475 109.801 58.1075C110.388 58.2142 110.948 58.3475 111.481 58.5075H111.801C112.068 58.5609 112.308 58.6142 112.521 58.6675C112.734 58.7209 112.948 58.8009 113.161 58.9075H111.641C111.854 58.9609 112.041 59.0142 112.201 59.0675C112.414 59.1209 112.628 59.2009 112.841 59.3075H116.201C116.361 59.3609 116.521 59.4142 116.681 59.4675C116.894 59.5209 117.081 59.6009 117.241 59.7075H105.961C107.028 60.1342 107.881 60.5342 108.521 60.9075H122.521C122.841 61.1209 123.161 61.3342 123.481 61.5475C123.801 61.7075 124.094 61.8942 124.361 62.1075H106.121C106.228 62.1609 106.334 62.2142 106.441 62.2675C106.548 62.3209 106.628 62.4009 106.681 62.5075H114.361C114.521 62.6142 114.681 62.7475 114.841 62.9075C115.001 63.0675 115.134 63.2009 115.241 63.3075H114.041C114.574 63.7875 115.028 64.3209 115.401 64.9075H111.241C111.348 65.0142 111.454 65.1475 111.561 65.3075C111.668 65.4675 111.748 65.6009 111.801 65.7075H127.641L128.361 66.9075H113.481C113.588 67.1209 113.694 67.3342 113.801 67.5475C113.908 67.7075 113.988 67.8942 114.041 68.1075H120.921L121.161 68.9075H122.281L122.521 69.7075H123.961C124.068 69.9209 124.121 70.1875 124.121 70.5075C124.174 70.7742 124.228 71.0409 124.281 71.3075L124.361 72.1075H124.841C124.894 72.2142 124.921 72.3475 124.921 72.5075C124.921 72.6675 124.921 72.8009 124.921 72.9075H125.161V74.1075H125.881V74.3475C125.881 74.5609 125.854 74.7742 125.801 74.9875C125.801 75.2009 125.801 75.4409 125.801 75.7075H125.001V76.1075H125.161C125.161 76.3209 125.134 76.5342 125.081 76.7475C125.081 76.9075 125.054 77.0942 125.001 77.3075H125.241L125.001 78.5075H125.641C125.588 78.7209 125.534 78.9342 125.481 79.1476C125.428 79.3076 125.348 79.4942 125.241 79.7076H124.361C124.361 79.7609 124.334 79.8142 124.281 79.8675C124.281 79.9209 124.281 80.0009 124.281 80.1076H126.201L125.721 81.3076H120.361C120.308 81.5209 120.201 81.7342 120.041 81.9476C119.934 82.1076 119.828 82.2942 119.721 82.5075H131.001L130.761 82.9076H135.641C135.534 83.1209 135.401 83.3342 135.241 83.5476C135.134 83.7076 135.001 83.8942 134.841 84.1076H124.841C124.788 84.1609 124.734 84.2142 124.681 84.2676C124.628 84.3209 124.574 84.4009 124.521 84.5076ZM103.721 51.3075H106.121C105.961 51.2542 105.774 51.2275 105.561 51.2275C105.401 51.2275 105.214 51.2275 105.001 51.2275C104.788 51.2275 104.574 51.2275 104.361 51.2275C104.148 51.2275 103.934 51.2542 103.721 51.3075Z" fill="url(#paint1_linear_1021_29)"/>
<path d="M5.45059 19.0107H123.481L122.791 25.6575H4.76086L5.45059 19.0107Z" fill="url(#paint2_linear_1021_29)"/>
<path d="M4.76086 105.652H122.791L127.474 112.004H9.44398L4.76086 105.652Z" fill="url(#paint3_linear_1021_29)"/>
</g>
<defs>
<linearGradient id="paint0_linear_1021_29" x1="4.57837" y1="22.9829" x2="123.31" y2="108.327" gradientUnits="userSpaceOnUse">
<stop stop-color="#A58CFE"/>
<stop offset="1" stop-color="#14F5AE"/>
</linearGradient>
<linearGradient id="paint1_linear_1021_29" x1="4.57837" y1="22.9829" x2="123.31" y2="108.327" gradientUnits="userSpaceOnUse">
<stop stop-color="#A58CFE"/>
<stop offset="1" stop-color="#14F5AE"/>
</linearGradient>
<linearGradient id="paint2_linear_1021_29" x1="4.57837" y1="22.9829" x2="123.31" y2="108.327" gradientUnits="userSpaceOnUse">
<stop stop-color="#A58CFE"/>
<stop offset="1" stop-color="#14F5AE"/>
</linearGradient>
<linearGradient id="paint3_linear_1021_29" x1="4.57837" y1="22.9829" x2="123.31" y2="108.327" gradientUnits="userSpaceOnUse">
<stop stop-color="#A58CFE"/>
<stop offset="1" stop-color="#14F5AE"/>
</linearGradient>
</defs>
</svg>
